# This file uses centimeters as units for non-parametric coordinates.

mtllib OrangeBlock.mtl
g default
v 6.000000 -0.200005 2.950005
v 6.006699 -0.225002 2.950005
v 6.024998 -0.243302 2.950005
v 6.049995 -0.250000 2.950005
v 6.049995 -0.243302 2.975003
v 6.049995 -0.225002 2.993302
v 6.049995 -0.200005 3.000000
v 6.024998 -0.200005 2.993302
v 6.006699 -0.200005 2.975003
v 7.000000 -0.243302 2.975003
v 7.000000 -0.225002 2.993302
v 7.000000 -0.200005 3.000000
v 7.000000 -0.250000 2.950005
v 7.950006 -0.250000 2.950005
v 7.975003 -0.243302 2.950005
v 7.993302 -0.225002 2.950005
v 8.000000 -0.200005 2.950005
v 7.993302 -0.200005 2.975003
v 7.975003 -0.200005 2.993302
v 7.950006 -0.200005 3.000000
v 7.950006 -0.225002 2.993302
v 7.950006 -0.243302 2.975003
v 6.049995 0.250000 2.950005
v 6.024998 0.243302 2.950005
v 6.006699 0.225002 2.950005
v 6.000000 0.200005 2.950005
v 6.006699 0.200005 2.975003
v 6.024998 0.200005 2.993302
v 6.049995 0.200005 3.000000
v 6.049995 0.225002 2.993302
v 6.049995 0.243302 2.975003
v 7.000000 0.243302 2.975003
v 7.000000 0.225002 2.993302
v 7.000000 0.200005 3.000000
v 7.000000 0.250000 2.950005
v 8.000000 0.200005 2.950005
v 7.993302 0.225002 2.950005
v 7.975003 0.243302 2.950005
v 7.950006 0.250000 2.950005
v 7.950006 0.243302 2.975003
v 7.950006 0.225002 2.993302
v 7.950006 0.200005 3.000000
v 7.975003 0.200005 2.993302
v 7.993302 0.200005 2.975003
v 6.049995 0.200005 2.000000
v 6.024998 0.200005 2.006698
v 6.006699 0.200005 2.024997
v 6.000000 0.200005 2.049995
v 6.006699 0.225002 2.049995
v 6.024998 0.243302 2.049995
v 6.049995 0.250000 2.049995
v 6.049995 0.243302 2.024997
v 6.049995 0.225002 2.006698
v 7.024998 0.243302 1.993302
v 7.006699 0.225002 1.975003
v 7.000000 0.200005 1.950005
v 6.993302 0.200005 1.975003
v 6.975003 0.200005 1.993302
v 6.950006 0.200005 2.000000
v 6.975003 0.225002 2.006698
v 6.993302 0.243302 2.024997
v 7.000000 0.250000 2.049995
v 7.049995 0.250000 2.000000
v 6.049995 -0.250000 2.049995
v 6.024998 -0.243302 2.049995
v 6.006699 -0.225002 2.049995
v 6.000000 -0.200005 2.049995
v 6.006699 -0.200005 2.024997
v 6.024998 -0.200005 2.006698
v 6.049995 -0.200005 2.000000
v 6.049995 -0.225002 2.006698
v 6.049995 -0.243302 2.024997
v 7.000000 -0.200005 1.950005
v 7.006699 -0.225002 1.975003
v 7.024998 -0.243302 1.993302
v 7.049995 -0.250000 2.000000
v 7.000000 -0.250000 2.049995
v 6.993302 -0.243302 2.024997
v 6.975003 -0.225002 2.006698
v 6.950006 -0.200005 2.000000
v 6.975003 -0.200005 1.993302
v 6.993302 -0.200005 1.975003
v 7.993302 0.225002 2.000000
v 7.975003 0.243302 2.000000
v 7.950006 0.250000 2.000000
v 8.000000 0.200005 2.000000
v 7.975003 -0.243302 2.000000
v 7.993302 -0.225002 2.000000
v 8.000000 -0.200005 2.000000
v 7.950006 -0.250000 2.000000
v 7.006699 0.225002 1.000000
v 7.024998 0.243302 1.000000
v 7.049995 0.250000 1.000000
v 7.000000 0.200005 1.000000
v 7.049995 0.200005 0.000000
v 7.024998 0.200005 0.006698
v 7.006699 0.200005 0.024997
v 7.000000 0.200005 0.049995
v 7.006699 0.225002 0.049995
v 7.024998 0.243302 0.049995
v 7.049995 0.250000 0.049995
v 7.049995 0.243302 0.024997
v 7.049995 0.225002 0.006698
v 7.993302 0.225002 1.000000
v 7.975003 0.243302 1.000000
v 7.950006 0.250000 1.000000
v 8.000000 0.200005 1.000000
v 8.000000 0.200005 0.049995
v 7.993302 0.200005 0.024997
v 7.975003 0.200005 0.006698
v 7.950006 0.200005 0.000000
v 7.950006 0.225002 0.006698
v 7.950006 0.243302 0.024997
v 7.950006 0.250000 0.049995
v 7.975003 0.243302 0.049995
v 7.993302 0.225002 0.049995
v 7.975003 -0.243302 1.000000
v 7.993302 -0.225002 1.000000
v 8.000000 -0.200005 1.000000
v 7.950006 -0.250000 1.000000
v 7.950006 -0.250000 0.049995
v 7.950006 -0.243302 0.024997
v 7.950006 -0.225002 0.006698
v 7.950006 -0.200005 0.000000
v 7.975003 -0.200005 0.006698
v 7.993302 -0.200005 0.024997
v 8.000000 -0.200005 0.049995
v 7.993302 -0.225002 0.049995
v 7.975003 -0.243302 0.049995
v 7.006699 -0.225002 1.000000
v 7.024998 -0.243302 1.000000
v 7.049995 -0.250000 1.000000
v 7.000000 -0.200005 1.000000
v 7.000000 -0.200005 0.049995
v 7.006699 -0.200005 0.024997
v 7.024998 -0.200005 0.006698
v 7.049995 -0.200005 0.000000
v 7.049995 -0.225002 0.006698
v 7.049995 -0.243302 0.024997
v 7.049995 -0.250000 0.049995
v 7.024998 -0.243302 0.049995
v 7.006699 -0.225002 0.049995
v 6.012499 -0.223328 2.973328
v 6.026673 -0.237501 2.973328
v 6.026672 -0.223328 2.987501
v 7.973329 -0.237501 2.973328
v 7.987502 -0.223328 2.973328
v 7.973328 -0.223328 2.987501
v 6.026672 0.237501 2.973328
v 6.012499 0.223328 2.973328
v 6.026673 0.223328 2.987501
v 7.987502 0.223328 2.973328
v 7.973328 0.237501 2.973328
v 7.973329 0.223328 2.987501
v 6.026672 0.223328 2.012499
v 6.012499 0.223328 2.026672
v 6.026673 0.237501 2.026672
v 7.000818 0.228870 2.000817
v 6.997877 0.219720 1.991259
v 6.991259 0.219720 1.997877
v 6.026672 -0.237501 2.026672
v 6.012499 -0.223328 2.026672
v 6.026673 -0.223328 2.012499
v 6.997877 -0.219720 1.991259
v 7.000818 -0.228870 2.000817
v 6.991259 -0.219720 1.997877
v 7.026672 0.223328 0.012499
v 7.012499 0.223328 0.026672
v 7.026673 0.237501 0.026672
v 7.987502 0.223328 0.026672
v 7.973328 0.223328 0.012499
v 7.973329 0.237501 0.026672
v 7.973329 -0.237501 0.026672
v 7.973329 -0.223328 0.012499
v 7.987502 -0.223328 0.026672
v 7.012499 -0.223328 0.026672
v 7.026673 -0.223328 0.012499
v 7.026672 -0.237501 0.026672
vt -1.000000 -1.000000
vt -1.000000 -1.000000
vt -1.000000 -1.000000
vt -1.000000 -1.000000
vt -1.000000 -1.000000
vt -1.000000 -1.000000
vt -1.000000 -1.000000
vt -1.000000 -1.000000
vt -1.000000 -1.000000
vt -1.000000 -1.000000
vt -1.000000 -1.000000
vt 0.500000 1.000000
vt 0.500000 0.000000
vt -1.000000 -1.000000
vt -1.000000 -1.000000
vt -1.000000 -1.000000
vt -1.000000 -1.000000
vt -1.000000 -1.000000
vt -1.000000 -1.000000
vt -1.000000 -1.000000
vt -1.000000 -1.000000
vt -1.000000 -1.000000
vt -1.000000 -1.000000
vt -1.000000 -1.000000
vt -1.000000 -1.000000
vt -1.000000 -1.000000
vt -1.000000 -1.000000
vt -1.000000 -1.000000
vt -1.000000 -1.000000
vt -1.000000 -1.000000
vt -1.000000 -1.000000
vt -1.000000 -1.000000
vt -1.000000 -1.000000
vt -1.000000 -1.000000
vt -1.000000 -1.000000
vt -1.000000 -1.000000
vt -1.000000 -1.000000
vt -1.000000 -1.000000
vt -1.000000 -1.000000
vt -1.000000 -1.000000
vt -1.000000 -1.000000
vt -1.000000 -1.000000
vt -1.000000 -1.000000
vt -1.000000 -1.000000
vt -1.000000 -1.000000
vt -1.000000 -1.000000
vt -1.000000 -1.000000
vt -1.000000 -1.000000
vt -1.000000 -1.000000
vt -1.000000 -1.000000
vt -1.000000 -1.000000
vt -1.000000 -1.000000
vt -1.000000 -1.000000
vt -1.000000 -1.000000
vt -1.000000 -1.000000
vt -1.000000 -1.000000
vt -1.000000 -1.000000
vt -1.000000 -1.000000
vt -1.000000 -1.000000
vt -1.000000 -1.000000
vt -1.000000 -1.000000
vt -1.000000 -1.000000
vt -1.000000 -1.000000
vt -1.000000 -1.000000
vt -1.000000 -1.000000
vt -1.000000 -1.000000
vt -1.000000 -1.000000
vt -1.000000 -1.000000
vt -1.000000 -1.000000
vt -1.000000 -1.000000
vt -1.000000 -1.000000
vt -1.000000 -1.000000
vt -1.000000 -1.000000
vt -1.000000 -1.000000
vt -1.000000 -1.000000
vt -1.000000 -1.000000
vt -1.000000 -1.000000
vt -1.000000 -1.000000
vt -1.000000 -1.000000
vt -1.000000 -1.000000
vt -1.000000 -1.000000
vt -1.000000 -1.000000
vt -1.000000 -1.000000
vt -1.000000 -1.000000
vt -1.000000 -1.000000
vt -1.000000 -1.000000
vt -1.000000 -1.000000
vt -1.000000 -1.000000
vt -1.000000 -1.000000
vt -1.000000 -1.000000
vt -1.000000 -1.000000
vt -1.000000 -1.000000
vt -1.000000 -1.000000
vt 0.625000 0.500000
vt 0.875000 0.250000
vt -1.000000 -1.000000
vt -1.000000 -1.000000
vt -1.000000 -1.000000
vt -1.000000 -1.000000
vt 0.625000 0.750000
vt -1.000000 -1.000000
vt -1.000000 -1.000000
vt -1.000000 -1.000000
vt -1.000000 -1.000000
vt -1.000000 -1.000000
vt -1.000000 -1.000000
vt -1.000000 -1.000000
vt -1.000000 -1.000000
vt -1.000000 -1.000000
vt -1.000000 -1.000000
vt -1.000000 -1.000000
vt -1.000000 -1.000000
vt -1.000000 -1.000000
vt -1.000000 -1.000000
vt -1.000000 -1.000000
vt -1.000000 -1.000000
vt -1.000000 -1.000000
vt -1.000000 -1.000000
vt -1.000000 -1.000000
vt -1.000000 -1.000000
vt -1.000000 -1.000000
vt -1.000000 -1.000000
vt -1.000000 -1.000000
vt -1.000000 -1.000000
vt -1.000000 -1.000000
vt -1.000000 -1.000000
vt -1.000000 -1.000000
vt -1.000000 -1.000000
vt -1.000000 -1.000000
vt -1.000000 -1.000000
vt -1.000000 -1.000000
vt -1.000000 -1.000000
vt -1.000000 -1.000000
vt -1.000000 -1.000000
vt -1.000000 -1.000000
vt -1.000000 -1.000000
vt -1.000000 -1.000000
vt -1.000000 -1.000000
vt -1.000000 -1.000000
vt -1.000000 -1.000000
vt -1.000000 -1.000000
vt -1.000000 -1.000000
vt -1.000000 -1.000000
vt -1.000000 -1.000000
vt -1.000000 -1.000000
vt -1.000000 -1.000000
vt -1.000000 -1.000000
vt -1.000000 -1.000000
vt -1.000000 -1.000000
vt -1.000000 -1.000000
vt -1.000000 -1.000000
vt -1.000000 -1.000000
vt -1.000000 -1.000000
vt -1.000000 -1.000000
vt -1.000000 -1.000000
vt -1.000000 -1.000000
vt -1.000000 -1.000000
vt 0.375000 0.000000
vt 0.375000 1.000000
vt -1.000000 -1.000000
vt -1.000000 -1.000000
vt -1.000000 -1.000000
vt 0.625000 0.000000
vt 0.625000 1.000000
vt -1.000000 -1.000000
vt -1.000000 -1.000000
vt -1.000000 -1.000000
vt -1.000000 -1.000000
vt 0.375000 0.250000
vt -1.000000 -1.000000
vt 0.625000 0.250000
vt -1.000000 -1.000000
vt -1.000000 -1.000000
vt -1.000000 -1.000000
vt 0.375000 0.500000
vt 0.125000 0.250000
vt -1.000000 -1.000000
vt -1.000000 -1.000000
vt -1.000000 -1.000000
vt -1.000000 -1.000000
vt -1.000000 -1.000000
vt 0.375000 0.750000
vt 0.125000 0.000000
vt -1.000000 -1.000000
vt -1.000000 -1.000000
vt -1.000000 -1.000000
vt -1.000000 -1.000000
vt -1.000000 -1.000000
vt -1.000000 -1.000000
vt -1.000000 -1.000000
vt -1.000000 -1.000000
vt -1.000000 -1.000000
vt -1.000000 -1.000000
vt -1.000000 -1.000000
vt -1.000000 -1.000000
vt -1.000000 -1.000000
vt -1.000000 -1.000000
vt -1.000000 -1.000000
vt -1.000000 -1.000000
vn -0.999851 0.015715 0.007196
vn -0.999851 0.015715 -0.007196
vn -0.999851 -0.015715 -0.007196
vn -0.999851 -0.015715 0.007196
vn -0.006630 0.022522 -0.999724
vn -0.006630 -0.022522 -0.999724
vn -0.007190 -0.015915 -0.999848
vn -0.007190 0.015915 -0.999848
vn 0.007196 0.015715 -0.999851
vn 0.007196 -0.015715 -0.999851
vn -0.007196 -0.015715 -0.999851
vn -0.007196 0.015715 -0.999851
vn -0.006850 -0.999951 0.007221
vn -0.499469 -0.866312 0.005813
vn -0.499469 -0.866312 -0.005813
vn -0.006851 -0.999951 -0.007197
vn -0.866311 -0.499471 0.005813
vn -0.866311 -0.499471 -0.005813
vn -0.006827 -0.015717 0.999853
vn -0.005514 -0.499495 0.866299
vn 0.000000 -0.499999 0.866026
vn 0.000000 -0.015758 0.999876
vn -0.005514 -0.866298 0.499497
vn 0.000000 -0.707105 0.707109
vn 0.000000 -0.999975 0.007055
vn 0.000000 -0.965926 0.258819
vn -0.866613 -0.012713 0.498818
vn -0.866613 0.012714 0.498818
vn -0.498815 -0.012713 0.866615
vn -0.498815 0.012713 0.866615
vn -0.006827 0.015717 0.999853
vn 0.005514 -0.499495 0.866299
vn 0.006827 -0.015717 0.999853
vn 0.005514 -0.866298 0.499497
vn 0.006860 -0.999953 0.006860
vn 0.999853 -0.015717 0.006827
vn 0.866297 -0.499499 0.005514
vn 0.965925 -0.258822 0.000000
vn 0.999876 -0.015758 0.000000
vn 0.499497 -0.866298 0.005514
vn 0.500001 -0.866025 0.000000
vn 0.707104 -0.707110 0.000000
vn 0.007060 -0.999975 0.000000
vn 0.498815 -0.012714 0.866615
vn 0.498815 0.012713 0.866615
vn 0.006827 0.015717 0.999853
vn 0.866613 -0.012714 0.498818
vn 0.866614 0.012713 0.498818
vn 0.999853 0.015717 0.006827
vn -0.866311 0.499471 0.005813
vn -0.866311 0.499471 -0.005813
vn -0.499469 0.866312 0.005813
vn -0.499469 0.866312 -0.005813
vn -0.006850 0.999951 0.007221
vn -0.006851 0.999951 -0.007197
vn -0.005514 0.866298 0.499497
vn 0.000000 0.965926 0.258819
vn 0.000000 0.999975 0.007055
vn -0.005514 0.499495 0.866299
vn 0.000000 0.499999 0.866026
vn 0.000000 0.707105 0.707109
vn 0.000000 0.015758 0.999876
vn 0.005514 0.866298 0.499497
vn 0.006860 0.999953 0.006860
vn 0.005514 0.499495 0.866299
vn 0.499497 0.866298 0.005514
vn 0.500001 0.866025 0.000000
vn 0.007060 0.999975 0.000000
vn 0.866297 0.499499 0.005514
vn 0.707104 0.707110 0.000000
vn 0.999876 0.015758 0.000000
vn 0.965925 0.258822 0.000000
vn -0.866613 0.012713 -0.498818
vn -0.866613 -0.012714 -0.498818
vn -0.498815 0.012713 -0.866615
vn -0.498815 -0.012713 -0.866615
vn -0.005670 0.502139 -0.864769
vn 0.000000 0.604718 -0.796440
vn -0.005569 0.867169 -0.497982
vn 0.000000 0.707105 -0.707109
vn -0.000571 0.999995 -0.002957
vn -0.088656 0.948767 -0.303285
vn -0.999726 0.022536 -0.006290
vn -0.965925 0.258822 0.000000
vn -0.965925 0.258822 0.000000
vn -0.999874 0.015856 0.000000
vn -0.707104 0.707109 0.000000
vn -0.424611 0.905376 0.000000
vn -0.499254 0.866456 0.000000
vn -0.707104 0.707109 0.000000
vn -0.002464 0.999997 0.000000
vn -0.007229 0.999974 0.000000
vn -0.500001 0.000000 -0.866025
vn -0.500001 0.000000 -0.866025
vn -0.707105 0.000000 -0.707109
vn -0.707105 0.000000 -0.707109
vn -0.965925 0.000000 -0.258822
vn -0.999726 -0.022536 -0.006290
vn -0.965925 0.000000 -0.258822
vn -0.005569 -0.867169 -0.497982
vn 0.000000 -0.965926 -0.258819
vn 0.000000 -0.999997 -0.002388
vn -0.005670 -0.502139 -0.864769
vn 0.000000 -0.604718 -0.796440
vn 0.000000 -0.707105 -0.707109
vn -0.003020 -0.999995 -0.000559
vn -0.434676 -0.898533 -0.060794
vn -0.499254 -0.866456 0.000000
vn -0.007229 -0.999974 0.000000
vn -0.707104 -0.707109 0.000000
vn -0.707104 -0.707109 0.000000
vn -0.965925 -0.258822 0.000000
vn -0.999874 -0.015856 0.000000
vn -0.965925 -0.258822 0.000000
vn 0.500001 0.866025 0.000000
vn 0.007241 0.999974 0.000000
vn 0.707104 0.707110 0.000000
vn 0.999876 0.015758 0.000000
vn 0.965925 0.258822 0.000000
vn 0.965925 -0.258822 0.000000
vn 0.999876 -0.015758 0.000000
vn 0.500001 -0.866025 0.000000
vn 0.707104 -0.707110 0.000000
vn 0.007241 -0.999974 0.000000
vn -0.866297 0.499499 -0.005514
vn -0.999853 0.015717 -0.006827
vn -0.499497 0.866298 -0.005514
vn -0.007221 0.999951 -0.006850
vn -0.866613 0.012713 -0.498818
vn -0.866613 -0.012714 -0.498819
vn -0.999853 -0.015717 -0.006827
vn -0.498816 0.012713 -0.866615
vn -0.498816 -0.012714 -0.866615
vn -0.005813 0.499467 -0.866313
vn 0.005813 0.499467 -0.866313
vn -0.005813 0.866312 -0.499469
vn 0.005813 0.866312 -0.499469
vn 0.007221 0.999951 -0.006850
vn 0.499497 0.866298 -0.005514
vn 0.866297 0.499499 -0.005514
vn 0.999853 0.015717 -0.006827
vn 0.498816 0.012714 -0.866615
vn 0.498816 -0.012713 -0.866615
vn 0.866613 0.012714 -0.498819
vn 0.866613 -0.012713 -0.498818
vn 0.999853 -0.015717 -0.006827
vn 0.866297 -0.499499 -0.005514
vn 0.499497 -0.866298 -0.005514
vn 0.007221 -0.999951 -0.006850
vn 0.005813 -0.499467 -0.866313
vn -0.005813 -0.499467 -0.866313
vn 0.005813 -0.866312 -0.499469
vn -0.005813 -0.866312 -0.499469
vn -0.007221 -0.999951 -0.006850
vn -0.499497 -0.866298 -0.005514
vn -0.866297 -0.499499 -0.005514
vn -0.457494 0.762493 -0.457497
vn -0.457495 0.762493 -0.457497
vn -0.457494 0.762493 -0.457497
vn -0.457495 0.762493 -0.457497
vn -0.457495 0.762493 -0.457497
vn -0.457494 0.762493 -0.457497
vn -0.457495 0.762493 -0.457497
vn -0.457495 0.762493 -0.457497
vn -0.457494 -0.762493 -0.457497
vn -0.457494 -0.762493 -0.457497
vn -0.457494 -0.762493 -0.457497
vn -0.457494 -0.762493 -0.457497
vn -0.457494 -0.762493 -0.457497
vn -0.457494 -0.762493 -0.457497
vn -0.457494 -0.762493 -0.457497
vn -0.457494 -0.762493 -0.457497
vn -0.808360 -0.416266 0.416265
vn -0.416264 -0.808361 0.416266
vn -0.416266 -0.416260 0.808363
vn 0.416268 -0.808360 0.416263
vn 0.808360 -0.416265 0.416267
vn 0.416262 -0.416263 0.808363
vn -0.416268 0.808360 0.416264
vn -0.808360 0.416264 0.416267
vn -0.416262 0.416262 0.808364
vn 0.808360 0.416267 0.416265
vn 0.416263 0.808361 0.416265
vn 0.416266 0.416261 0.808362
vn -0.416268 0.416261 -0.808361
vn -0.808360 0.416267 -0.416264
vn -0.416264 0.808360 -0.416267
vn -0.337015 0.823212 -0.456884
vn -0.371698 0.850693 -0.371702
vn -0.414373 0.838045 -0.354929
vn -0.417693 0.806885 -0.417696
vn -0.774929 0.575005 -0.262402
vn -0.689863 0.621800 -0.370748
vn -0.850703 0.455895 -0.261655
vn -0.783615 0.507815 -0.357870
vn -0.357867 0.507814 -0.783617
vn -0.370745 0.621798 -0.689866
vn -0.261651 0.455893 -0.850706
vn -0.262398 0.575001 -0.774933
vn -0.416268 -0.808360 -0.416264
vn -0.808360 -0.416264 -0.416267
vn -0.416262 -0.416262 -0.808364
vn -0.783615 -0.507816 -0.357869
vn -0.850704 -0.455895 -0.261654
vn -0.774930 -0.575004 -0.262401
vn -0.689863 -0.621800 -0.370748
vn -0.456876 -0.823216 -0.337016
vn -0.417692 -0.806886 -0.417694
vn -0.371695 -0.850695 -0.371699
vn -0.354923 -0.838047 -0.414375
vn -0.262398 -0.575001 -0.774933
vn -0.370744 -0.621799 -0.689866
vn -0.261651 -0.455893 -0.850706
vn -0.357866 -0.507814 -0.783618
vn -0.416270 0.416263 -0.808359
vn -0.808360 0.416266 -0.416265
vn -0.416266 0.808360 -0.416265
vn 0.808359 0.416266 -0.416267
vn 0.416266 0.416265 -0.808360
vn 0.416269 0.808360 -0.416263
vn 0.416269 -0.808360 -0.416263
vn 0.416268 -0.416263 -0.808360
vn 0.808363 -0.416263 -0.416264
vn -0.808359 -0.416265 -0.416267
vn -0.416267 -0.416264 -0.808360
vn -0.416269 -0.808359 -0.416263
s 1
g pCube5
usemtl phong3SG
f 26/32/1 48/56/2 67/77/3 1/1/4
f 59/68/5 80/91/6 70/81/7 45/52/8
f 111/126/9 124/139/10 137/152/11 95/110/12
f 4/5/13 3/4/14 65/74/15 64/73/16
f 3/4/14 2/2/17 66/76/18 65/74/15
f 2/3/17 1/1/4 67/77/3 66/75/18
f 7/9/19 6/8/20 11/14/21 12/15/22
f 6/8/20 5/6/23 10/13/24 11/14/21
f 5/7/23 4/5/13 13/16/25 10/12/26
f 1/1/4 9/11/27 27/33/28 26/32/1
f 9/11/27 8/10/29 28/34/30 27/33/28
f 8/10/29 7/9/19 29/35/31 28/34/30
f 12/15/22 11/14/21 21/25/32 20/24/33
f 11/14/21 10/13/24 22/27/34 21/25/32
f 10/12/26 13/16/25 14/17/35 22/26/34
f 17/21/36 16/19/37 88/102/38 89/104/39
f 16/20/37 15/18/40 87/100/41 88/101/42
f 15/18/40 14/17/35 90/105/43 87/100/41
f 20/24/33 19/23/44 43/50/45 42/49/46
f 19/23/44 18/22/47 44/51/48 43/50/45
f 18/22/47 17/21/36 36/42/49 44/51/48
f 26/32/1 25/30/50 49/58/51 48/56/2
f 25/31/50 24/29/52 50/59/53 49/57/51
f 24/29/52 23/28/54 51/60/55 50/59/53
f 23/28/54 31/37/56 32/38/57 35/41/58
f 31/37/56 30/36/59 33/39/60 32/38/61
f 30/36/59 29/35/31 34/40/62 33/39/60
f 35/41/58 32/38/57 40/47/63 39/46/64
f 32/38/61 33/39/60 41/48/65 40/47/63
f 33/39/60 34/40/62 42/49/46 41/48/65
f 39/46/64 38/45/66 84/96/67 85/97/68
f 38/45/66 37/43/69 83/94/70 84/96/67
f 37/44/69 36/42/49 86/98/71 83/95/72
f 48/56/2 47/54/73 68/79/74 67/77/3
f 47/55/73 46/53/75 69/80/76 68/78/74
f 46/53/75 45/52/8 70/81/7 69/80/76
f 45/52/8 53/62/77 60/69/78 59/68/5
f 53/62/77 52/61/79 61/70/80 60/69/78
f 52/61/79 51/60/55 62/71/81 61/70/82
f 56/65/83 55/64/84 91/106/85 94/109/86
f 55/64/87 54/63/88 92/107/89 91/106/90
f 54/63/88 63/72/91 93/108/92 92/107/89
f 59/68/5 58/67/93 81/92/94 80/91/6
f 58/67/93 57/66/95 82/93/96 81/92/94
f 57/66/97 56/65/83 73/84/98 82/93/99
f 64/73/16 72/83/100 78/89/101 77/88/102
f 72/83/100 71/82/103 79/90/104 78/89/105
f 71/82/103 70/81/7 80/91/6 79/90/104
f 76/87/106 75/86/107 131/146/108 132/147/109
f 75/86/107 74/85/110 130/145/111 131/146/108
f 74/85/112 73/84/98 133/148/113 130/145/114
f 85/97/68 84/96/67 105/120/115 106/121/116
f 84/96/67 83/94/70 104/119/117 105/120/115
f 83/94/72 86/99/71 107/122/118 104/119/119
f 89/103/39 88/101/38 118/133/120 119/134/121
f 88/101/42 87/100/41 117/132/122 118/133/123
f 87/100/41 90/105/43 120/135/124 117/132/122
f 94/109/86 91/106/85 99/114/125 98/113/126
f 91/106/90 92/107/89 100/115/127 99/114/125
f 92/107/89 93/108/92 101/116/128 100/115/127
f 98/113/126 97/112/129 135/150/130 134/149/131
f 97/112/129 96/111/132 136/151/133 135/150/130
f 96/111/132 95/110/12 137/152/11 136/151/133
f 95/110/12 103/118/134 112/127/135 111/126/9
f 103/118/134 102/117/136 113/128/137 112/127/135
f 102/117/136 101/116/128 114/129/138 113/128/137
f 106/121/116 105/120/115 115/130/139 114/129/138
f 105/120/115 104/119/117 116/131/140 115/130/139
f 104/119/119 107/122/118 108/123/141 116/131/140
f 111/126/9 110/125/142 125/140/143 124/139/10
f 110/125/142 109/124/144 126/141/145 125/140/143
f 109/124/144 108/123/141 127/142/146 126/141/145
f 119/134/121 118/133/120 128/143/147 127/142/146
f 118/133/123 117/132/122 129/144/148 128/143/147
f 117/132/122 120/135/124 121/136/149 129/144/148
f 124/139/10 123/138/150 138/153/151 137/152/11
f 123/138/150 122/137/152 139/154/153 138/153/151
f 122/137/152 121/136/149 140/155/154 139/154/153
f 132/147/109 131/146/108 141/156/155 140/155/154
f 131/146/108 130/145/111 142/157/156 141/156/155
f 130/145/114 133/148/113 134/149/131 142/157/156
f 35/41/58 39/46/64 85/97/68 63/72/91 62/71/81
f 93/108/92 63/72/91 85/97/68 106/121/116
f 86/99/71 89/103/39 119/134/121 107/122/118
f 90/105/43 76/87/106 132/147/109 120/135/124
f 77/88/102 76/87/106 90/105/43 14/17/35 13/16/25
f 13/16/25 4/5/13 64/73/16 77/88/102
f 34/40/62 29/35/31 7/9/19 12/15/22
f 12/15/22 20/24/33 42/49/46 34/40/62
f 86/98/71 36/42/49 17/21/36 89/104/39
f 62/71/81 51/60/55 23/28/54 35/41/58
f 133/148/113 73/84/98 56/65/83 94/109/86
f 94/109/86 98/113/126 134/149/131 133/148/113
f 106/121/116 114/129/138 101/116/128 93/108/92
f 119/134/121 127/142/146 108/123/141 107/122/118
f 132/147/109 140/155/154 121/136/149 120/135/124
f 54/63/157 55/64/158 56/65/159 57/66/160 58/67/161 59/68/162 60/69/163 61/70/82 62/71/81 63/72/164
f 73/84/165 74/85/166 75/86/107 76/87/106 77/88/167 78/89/168 79/90/169 80/91/170 81/92/171 82/93/172
f 9/11/27 1/1/4 2/3/17 143/158/173
f 143/159/173 2/2/17 3/4/14 144/161/174
f 3/4/14 4/5/13 5/7/23 144/161/174
f 144/160/174 5/6/23 6/8/20 145/162/175
f 6/8/20 7/9/19 8/10/29 145/162/175
f 145/162/175 8/10/29 9/11/27 143/158/173
f 143/158/173 144/160/174 145/162/175
f 22/26/34 14/17/35 15/18/40 146/164/176
f 146/164/176 15/18/40 16/20/37 147/166/177
f 16/19/37 17/21/36 18/22/47 147/165/177
f 147/165/177 18/22/47 19/23/44 148/167/178
f 19/23/44 20/24/33 21/25/32 148/167/178
f 148/167/178 21/25/32 22/27/34 146/163/176
f 146/163/176 147/165/177 148/167/178
f 31/37/56 23/28/54 24/29/52 149/168/179
f 149/168/179 24/29/52 25/31/50 150/169/180
f 25/30/50 26/32/1 27/33/28 150/169/180
f 150/169/180 27/33/28 28/34/30 151/170/181
f 28/34/30 29/35/31 30/36/59 151/170/181
f 151/170/181 30/36/59 31/37/56 149/168/179
f 149/168/179 150/169/180 151/170/181
f 44/51/48 36/42/49 37/44/69 152/171/182
f 152/171/182 37/43/69 38/45/66 153/172/183
f 38/45/66 39/46/64 40/47/63 153/172/183
f 153/172/183 40/47/63 41/48/65 154/173/184
f 41/48/65 42/49/46 43/50/45 154/173/184
f 154/173/184 43/50/45 44/51/48 152/171/182
f 152/171/182 153/172/183 154/173/184
f 53/62/77 45/52/8 46/53/75 155/174/185
f 155/174/185 46/53/75 47/55/73 156/175/186
f 47/54/73 48/56/2 49/58/51 156/176/186
f 156/175/186 49/57/51 50/59/53 157/177/187
f 50/59/53 51/60/55 52/61/79 157/177/187
f 157/177/187 52/61/79 53/62/77 155/174/185
f 155/174/185 156/175/186 157/177/187
s 17
f 61//188 63//189 54//190 158//191
f 158//191 54//190 55//192 159//193
f 55//192 56//194 57//195 159//193
f 159//193 57//195 58//196 160//197
f 58//196 59//198 60//199 160//197
f 160//197 60//199 61//188 158//191
f 158/178/191 159/179/193 160/180/197
s 1
f 72/83/100 64/73/16 65/74/15 161/181/200
f 161/181/200 65/74/15 66/76/18 162/182/201
f 66/75/18 67/77/3 68/79/74 162/183/201
f 162/182/201 68/78/74 69/80/76 163/184/202
f 69/80/76 70/81/7 71/82/103 163/184/202
f 163/184/202 71/82/103 72/83/100 161/181/200
f 161/181/200 162/182/201 163/184/202
s 18
f 82//203 73//204 74//205 164//206
f 164//206 74//205 75//207 165//208
f 75//207 77//209 78//210 165//208
f 165//208 78//210 79//211 166//212
f 79//211 80//213 81//214 166//212
f 166//212 81//214 82//203 164//206
f 164/185/206 165/186/208 166/187/212
s 1
f 103/118/134 95/110/12 96/111/132 167/188/215
f 167/188/215 96/111/132 97/112/129 168/189/216
f 97/112/129 98/113/126 99/114/125 168/189/216
f 168/189/216 99/114/125 100/115/127 169/190/217
f 100/115/127 101/116/128 102/117/136 169/190/217
f 169/190/217 102/117/136 103/118/134 167/188/215
f 167/188/215 168/189/216 169/190/217
f 116/131/140 108/123/141 109/124/144 170/191/218
f 170/191/218 109/124/144 110/125/142 171/192/219
f 110/125/142 111/126/9 112/127/135 171/192/219
f 171/192/219 112/127/135 113/128/137 172/193/220
f 113/128/137 114/129/138 115/130/139 172/193/220
f 172/193/220 115/130/139 116/131/140 170/191/218
f 170/191/218 171/192/219 172/193/220
f 129/144/148 121/136/149 122/137/152 173/194/221
f 173/194/221 122/137/152 123/138/150 174/195/222
f 123/138/150 124/139/10 125/140/143 174/195/222
f 174/195/222 125/140/143 126/141/145 175/196/223
f 126/141/145 127/142/146 128/143/147 175/196/223
f 175/196/223 128/143/147 129/144/148 173/194/221
f 173/194/221 174/195/222 175/196/223
f 142/157/156 134/149/131 135/150/130 176/197/224
f 176/197/224 135/150/130 136/151/133 177/198/225
f 136/151/133 137/152/11 138/153/151 177/198/225
f 177/198/225 138/153/151 139/154/153 178/199/226
f 139/154/153 140/155/154 141/156/155 178/199/226
f 178/199/226 141/156/155 142/157/156 176/197/224
f 176/197/224 177/198/225 178/199/226
